<svg width="128" height="128" viewBox="0 0 128 128" fill="none" xmlns="http://www.w3.org/2000/svg">
<path d="M97.1197 86.237H30.1375C28.4315 86.237 27.7476 85.2382 27.7476 84.0118L39.1097 43.981C39.1097 42.7546 40.18 41.7559 41.4997 41.7559H108.482C109.802 41.7559 110.872 42.7546 110.872 43.981L99.5096 84.0118C99.5096 85.2455 98.4394 86.237 97.1197 86.237Z" fill="white"/>
<path d="M110.832 43.4817C110.832 43.4817 109.962 42.6005 108.82 43.4303L73.832 64.5656C71.418 66.3501 68.1026 66.3428 65.6886 64.5509L41.3146 43.0631C40.9364 42.7694 40.3651 42.8208 40.0512 43.1733C39.7374 43.5258 39.7857 44.0545 40.1719 44.3483L54.6 58.8155L28.5362 84.6508C28.2062 84.9959 28.1499 85.2897 28.3833 85.4439C28.7534 85.6936 28.9868 86.3619 29.4052 85.9873L57.2072 61.4298L64.1919 68.4358C67.3543 70.9841 71.9651 70.9473 75.0873 68.3476L82.8687 62.8619L97.2726 85.1722C97.691 85.5467 98.0451 85.6936 98.4152 85.4439C98.6486 85.2897 99.6544 84.7609 99.3245 84.4158L85.9587 60.6808L109.713 43.9444C110.091 43.6433 110.832 43.4817 110.832 43.4817Z" fill="#032D76" stroke="#032D76" stroke-width="0.5" stroke-miterlimit="10"/>
<path d="M97.1197 86.237H30.1375C28.4315 86.237 27.7476 85.2382 27.7476 84.0118L39.1097 43.981C39.1097 42.7546 40.18 41.7559 41.4997 41.7559H108.482C109.802 41.7559 110.872 42.7546 110.872 43.981L99.5096 84.0118C99.5096 85.2455 98.4394 86.237 97.1197 86.237Z" stroke="#032D76" stroke-width="4" stroke-miterlimit="10"/>
<path d="M16.1279 43.5181H33.477M28.5604 51.7431H16.1279H26.2026M16.1279 59.2337H21.1653" stroke="#AFCEE8" stroke-width="4" stroke-miterlimit="10" stroke-linecap="round" stroke-linejoin="round"/>
<circle cx="64" cy="64" r="62.5" stroke="#032D76" stroke-width="3"/>
</svg>
