<svg width="421" height="217" viewBox="0 0 421 217" fill="none" xmlns="http://www.w3.org/2000/svg">
<g clip-path="url(#clip0_21_175)">
<path d="M419.191 164.6L249.836 172.587V152.399L341.255 148.081C341.69 148.044 342.095 147.848 342.388 147.531C342.681 147.215 342.84 146.802 342.833 146.376C342.826 145.949 342.654 145.541 342.351 145.234C342.048 144.927 341.637 144.743 341.201 144.719L248.451 142.964C246.172 137.07 241.666 132.252 235.859 129.5C230.976 126.986 225.956 124.735 220.82 122.759L212.447 1.63254C212.415 1.20774 212.22 0.810319 211.9 0.520217C211.581 0.230116 211.161 0.0688477 210.724 0.0688477C210.288 0.0688477 209.867 0.230116 209.548 0.520217C209.228 0.810319 209.033 1.20774 209.002 1.63254L200.664 122.741C195.531 124.713 190.513 126.96 185.634 129.473C179.746 132.278 175.21 137.212 172.988 143.227L78.7181 146.334C78.2828 146.365 77.8755 146.555 77.5783 146.867C77.281 147.179 77.1157 147.589 77.1157 148.015C77.1157 148.441 77.281 148.851 77.5783 149.163C77.8755 149.475 78.2828 149.665 78.7181 149.696L171.702 152.724V174.527L1.79815 170.331C1.36293 170.335 0.945131 170.499 0.628335 170.79C0.31154 171.081 0.119115 171.478 0.0895601 171.902C0.0600054 172.326 0.195501 172.745 0.468937 173.075C0.742373 173.406 1.13358 173.623 1.5643 173.684L83.1523 182.462C80.7316 184.83 79.0457 187.817 78.2888 191.08C77.5319 194.342 77.7347 197.747 78.8739 200.902C80.0131 204.057 82.0424 206.834 84.728 208.912C87.4136 210.991 90.6463 212.287 94.0537 212.652C97.4612 213.016 100.905 212.434 103.988 210.972C107.071 209.51 109.668 207.227 111.48 204.388C113.292 201.549 114.246 198.267 114.231 194.922C114.216 191.577 113.232 188.305 111.395 185.481L152.022 189.869L172.709 199.384C175.794 209.583 186.201 217.079 198.514 217.079H223.06C235.904 217.079 246.625 208.96 249.216 198.129L267.726 187.702L333.529 179.056C331.653 181.901 330.65 185.211 330.637 188.594C330.625 191.978 331.604 195.294 333.459 198.153C335.313 201.011 337.967 203.293 341.107 204.729C344.246 206.165 347.741 206.695 351.179 206.256C354.617 205.818 357.855 204.43 360.511 202.256C363.168 200.082 365.132 197.211 366.172 193.984C367.213 190.756 367.286 187.306 366.384 184.039C365.481 180.772 363.641 177.825 361.079 175.545L419.497 167.97C419.955 167.931 420.378 167.715 420.674 167.371C420.969 167.027 421.112 166.583 421.071 166.136C421.031 165.689 420.81 165.276 420.457 164.988C420.105 164.7 419.649 164.56 419.191 164.6Z" fill="white"/>
</g>
<defs>
<clipPath id="clip0_21_175">
<rect width="421" height="217" fill="white"/>
</clipPath>
</defs>
</svg>
