<svg width="121" height="69" viewBox="0 0 121 69" fill="none" xmlns="http://www.w3.org/2000/svg">
<g clip-path="url(#clip0_18_63)">
<path d="M120.48 52.3381L71.8057 54.8779V48.4588L98.0805 47.0856C98.2056 47.074 98.322 47.0115 98.4062 46.9109C98.4903 46.8103 98.536 46.6789 98.5341 46.5434C98.5321 46.4078 98.4826 46.2781 98.3956 46.1803C98.3085 46.0826 98.1904 46.0241 98.065 46.0167L71.4076 45.4585C70.7526 43.5844 69.4575 42.0523 67.7885 41.1772C66.3852 40.3779 64.9422 39.6624 63.4662 39.0338L61.0595 0.519061C61.0505 0.383985 60.9944 0.257618 60.9026 0.165374C60.8107 0.0731293 60.6899 0.0218506 60.5645 0.0218506C60.439 0.0218506 60.3183 0.0731293 60.2264 0.165374C60.1346 0.257618 60.0785 0.383985 60.0694 0.519061L57.6731 39.0282C56.1977 39.6551 54.7556 40.3697 53.3534 41.1689C51.661 42.0607 50.3572 43.6295 49.7188 45.5422L22.6245 46.5302C22.4994 46.54 22.3823 46.6005 22.2969 46.6997C22.2115 46.7989 22.164 46.9293 22.164 47.0647C22.164 47.2001 22.2115 47.3305 22.2969 47.4297C22.3823 47.5288 22.4994 47.5894 22.6245 47.5991L49.3491 48.562V55.4947L0.516872 54.1606C0.391786 54.1617 0.271705 54.2138 0.180655 54.3064C0.089604 54.399 0.034299 54.5253 0.0258046 54.6601C0.0173103 54.7948 0.0562531 54.928 0.134842 55.0331C0.21343 55.1382 0.325868 55.2073 0.44966 55.2267L23.899 58.0177C23.2032 58.7707 22.7187 59.7207 22.5011 60.7581C22.2836 61.7955 22.3419 62.8781 22.6693 63.8813C22.9967 64.8844 23.5799 65.7674 24.3518 66.4283C25.1237 67.0893 26.0528 67.5015 27.0321 67.6173C28.0115 67.7331 29.0012 67.5479 29.8873 67.0831C30.7734 66.6182 31.5199 65.8925 32.0407 64.9897C32.5616 64.0868 32.8356 63.0435 32.8312 61.9799C32.8269 60.9163 32.5443 59.8756 32.0161 58.9777L43.6929 60.3732L49.6386 63.3986C50.5253 66.6416 53.5163 69.0251 57.0552 69.0251H64.1099C67.8014 69.0251 70.8828 66.4435 71.6273 62.9995L76.9475 59.6838L95.8599 56.9348C95.3208 57.8396 95.0324 58.8919 95.0288 59.9677C95.0252 61.0436 95.3066 62.0981 95.8397 63.0071C96.3728 63.916 97.1355 64.6415 98.0378 65.098C98.9401 65.5546 99.9446 65.7231 100.933 65.5838C101.921 65.4445 102.851 65.0031 103.615 64.3117C104.378 63.6203 104.943 62.7077 105.242 61.6815C105.541 60.6552 105.562 59.558 105.303 58.5192C105.043 57.4805 104.514 56.5434 103.778 55.8184L120.568 53.4098C120.7 53.3973 120.821 53.3287 120.906 53.2194C120.991 53.11 121.032 52.9687 121.021 52.8265C121.009 52.6844 120.945 52.5531 120.844 52.4615C120.743 52.3699 120.612 52.3256 120.48 52.3381Z" fill="#822166"/>
</g>
<defs>
<clipPath id="clip0_18_63">
<rect width="121" height="69" fill="white"/>
</clipPath>
</defs>
</svg>
