<svg width="128" height="128" viewBox="0 0 128 128" fill="none" xmlns="http://www.w3.org/2000/svg">
<rect width="94" height="84" transform="translate(17 22)" fill="white"/>
<path d="M20.0474 40.3816C19.3204 46.7406 21.7438 63.685 43.048 82.7228C64.3523 101.761 83.3138 103.926 90.4299 103.277C97.546 102.627 102.239 98.7025 105.33 95.6641C105.499 95.4935 105.749 95.2309 106.006 94.9028C107.791 92.6388 108.686 90.6635 99.8299 82.7491C90.3785 74.3031 85.818 76.9544 83.8058 78.1422C83.8058 78.1422 80.8904 80.2488 79.4804 81.0363C78.5624 81.5481 77.6297 81.8828 76.3226 81.8828C73.8477 81.8894 69.4341 83.1363 57.2215 72.5641C56.7368 72.131 56.2815 71.711 55.8335 71.2975C55.3708 70.9038 54.9008 70.4969 54.4162 70.0572C42.578 59.1438 43.9733 55.2063 43.9807 52.9881C43.9807 51.82 44.3552 50.9866 44.928 50.1663C45.8093 48.9128 48.1666 46.301 48.1666 46.301C49.4958 44.5028 52.4627 40.4275 43.0113 31.9816C34.1621 24.0738 31.9443 24.8744 29.4107 26.4691C29.0435 26.6988 28.7498 26.9153 28.5588 27.0728C25.166 29.8291 20.7671 34.0291 20.0474 40.3816Z" fill="#032D76"/>
<path d="M97.7516 84.1143C106.983 92.3896 104.412 96.5699 104.412 96.5699C106.322 95.894 113.041 91.3593 101.343 80.9118C89.6441 70.4643 84.5549 76.4493 83.7985 78.1555C83.7985 78.149 88.4912 75.8586 97.7516 84.1143ZM30.7032 54.8324C32.5538 58.8093 37.129 67.3011 48.7174 77.6568C60.3059 88.0124 69.8087 92.1008 74.259 93.7546C75.7204 94.2993 77.2259 93.1246 76.844 91.7465C76.139 89.174 75.9921 85.3283 79.2087 81.4302C79.3188 81.299 79.3923 81.1677 79.473 81.0299C79.473 81.0299 77.8354 81.9027 76.3226 81.883C73.9359 81.8502 68.5749 82.6443 55.8555 71.278C43.1362 59.9118 44.0174 55.1211 43.9807 52.9883C43.9587 51.6365 44.9354 50.173 44.9354 50.173C44.7885 50.2386 44.6343 50.3108 44.4874 50.4093C40.1252 53.2771 35.8218 53.1524 32.943 52.5224C31.4082 52.1877 30.0937 53.5265 30.7032 54.8324ZM41.4912 33.839C32.2307 25.5833 27.5527 27.8868 27.5527 27.8868C28.3091 26.1805 33.3837 20.1758 45.0749 30.6299C56.7662 41.084 50.0687 45.6318 48.1593 46.3077C48.1666 46.3077 50.7296 42.1143 41.4912 33.839Z" fill="#AFCEE8"/>
<path d="M32.1208 25.7668C31.7683 26.259 31.761 26.7643 32.2163 27.1778C32.6423 27.5649 34.5149 28.0112 36.226 28.674C37.9812 29.3565 38.9652 30.2687 39.8685 30.2687C40.434 30.2687 41.0435 30.1046 41.3519 29.6781C41.6457 29.2712 41.6016 28.7265 41.3666 28.2934C41.1316 27.8603 40.7351 27.5124 40.3165 27.204C38.6201 25.9374 33.8687 23.3256 32.1208 25.7668Z" fill="white"/>
<path d="M24.1307 44.8833C23.3082 42.4814 23.6019 39.2067 24.5199 36.6211C25.8712 32.8149 27.9935 31.9749 29.0216 32.0208C30.2994 32.0799 31.423 32.8739 31.188 34.4292C31.0118 35.5711 29.9176 36.6014 28.8307 37.7367C26.9434 39.712 26.3852 42.3305 25.6288 44.7652C25.313 45.802 24.4098 45.6905 24.1307 44.8833Z" fill="#AFCEE8"/>
<path d="M101.571 85.9975C103.84 88.6947 104.67 89.5609 105.367 89.8694C106.432 90.3353 107.056 89.7184 107.144 89.1278C107.211 88.6815 107.078 88.2353 106.902 87.8153C106.197 86.0828 104.875 84.1534 103.216 83.0115C102.415 82.4603 101.482 82.4603 100.932 83.3265C100.366 84.2322 100.954 85.2625 101.571 85.9975Z" fill="white"/>
<path d="M94.1021 96.5301C95.6075 95.5326 96.878 94.2726 98.3761 93.262C98.8902 92.9142 99.5585 92.5861 100.146 92.8158C100.697 93.0258 101.181 93.8986 101.042 94.8567C100.579 98.1117 95.9013 99.9426 93.5072 100.369C90.3861 100.927 86.3911 100.579 86.5453 99.6933C86.6628 98.9976 88.2418 99.0305 90.3421 98.3151C91.6713 97.8623 92.9564 97.2914 94.1021 96.5301Z" fill="#AFCEE8"/>
<circle cx="64" cy="64" r="62.5" stroke="#032D76" stroke-width="3"/>
</svg>
